<?xml version="1.0" encoding="UTF-8" standalone="no" ?>
<!DOCTYPE svg PUBLIC "-//W3C//DTD SVG 1.1//EN" "http://www.w3.org/Graphics/SVG/1.1/DTD/svg11.dtd">
<svg xmlns="http://www.w3.org/2000/svg" xmlns:xlink="http://www.w3.org/1999/xlink" version="1.1" width="400" height="400" viewBox="0 0 400 400" xml:space="preserve">
<desc>Created with Fabric.js 3.6.2</desc>
<defs>
</defs>
<g transform="matrix(0.33 0 0 0.33 200 200)" id="path1329"  >
<path style="stroke: rgb(255,255,255); stroke-width: 3.408; stroke-dasharray: none; stroke-linecap: butt; stroke-dashoffset: 0; stroke-linejoin: miter; stroke-miterlimit: 4; fill: rgb(0,0,0); fill-rule: nonzero; opacity: 1;"  transform=" translate(-306.08, -306.59)" d="M 82.4318 17.9239 C 41.0968 17.9239 17.8608 39.2949 17.8608 82.9599 L 17.8608 533.082 C 17.8608 573.925 38.7518 595.31 80.0528 595.31 L 532.077 595.31 C 573.38 595.31 594.303 574.99 594.303 533.082 L 594.303 82.9599 C 594.303 40.3599 573.38 17.9239 530.78 17.9239 C 530.78 17.9239 82.2888 17.7819 82.4318 17.9239 z" stroke-linecap="round" />
</g>
<g transform="matrix(0.33 0 0 0.33 183.76 198.44)" id="path1333"  >
<path style="stroke: none; stroke-width: 1; stroke-dasharray: none; stroke-linecap: butt; stroke-dashoffset: 0; stroke-linejoin: miter; stroke-miterlimit: 4; fill: aqua; fill-rule: nonzero; opacity: 1;"  transform=" translate(-256.37, -301.82)" d="M 309.337 64.0439 C 286.958 66.5479 205.583 103.742 203.208 295.523 C 200.708 497.548 286.958 540.048 309.578 539.59 L 309.578 406.154 C 290.958 406.154 287.212 385.879 282.958 344.048 C 280.144 316.369 279.324 282.106 282.958 248.048 C 285.51 224.151 289.958 200.825 309.458 200.825 L 309.337 64.0439 z" stroke-linecap="round" />
</g>
<g transform="matrix(0.33 0 0 0.33 213.08 254.35)" id="path1335"  >
<path style="stroke: none; stroke-width: 1; stroke-dasharray: none; stroke-linecap: butt; stroke-dashoffset: 0; stroke-linejoin: miter; stroke-miterlimit: 4; fill: aqua; fill-rule: nonzero; opacity: 1;"  transform=" translate(-346.12, -472.95)" d="M 357.583 539.825 C 366.208 539.825 372.394 532.798 372.394 524.923 L 372.456 524.861 C 372.456 524.861 372.394 420.861 372.394 420.798 C 372.394 412.548 365.708 406.044 357.583 406.044 L 319.784 406.044 L 319.784 539.825 C 319.784 539.825 357.491 539.883 357.522 539.852 L 357.583 539.825 z" stroke-linecap="round" />
</g>
<g transform="matrix(0.33 0 0 0.33 213.08 143.11)" id="path1337"  >
<path style="stroke: none; stroke-width: 1; stroke-dasharray: none; stroke-linecap: butt; stroke-dashoffset: 0; stroke-linejoin: miter; stroke-miterlimit: 4; fill: aqua; fill-rule: nonzero; opacity: 1;"  transform=" translate(-346.12, -132.45)" d="M 357.583 200.825 C 366.208 200.825 372.394 193.798 372.394 185.923 L 372.456 185.861 C 372.456 185.861 372.394 78.8609 372.394 78.7979 C 372.394 70.5479 365.708 64.0439 357.583 64.0439 L 319.784 64.0439 L 319.784 200.825 C 319.784 200.825 357.491 200.883 357.522 200.852 L 357.583 200.825 z" stroke-linecap="round" />
</g>
</svg>